<svg width="260" height="80" viewBox="0 0 260 80" fill="none" xmlns="http://www.w3.org/2000/svg">
<path d="M0 14.1274H2.70884L6.67426 21.3311V14.1274H9.52316V26.8229H6.81228L2.8489 19.6172V26.8229H0V14.1274Z" fill="#8D8D8D"/>
<path d="M12.0858 24.318H13.4083C14.603 24.318 14.9944 23.7886 14.9944 22.5959V16.6447H12.6276V14.1274H17.833V22.5938C17.833 25.3727 16.4426 26.8229 13.6658 26.8229H12.0796V24.316H12.0858V24.318Z" fill="#8D8D8D"/>
<path d="M20.7395 20.6762V20.1468C20.7395 16.2411 22.2556 14.002 25.9656 14.002C29.6755 14.002 31.1917 16.2535 31.1917 20.1468V20.6762C31.1917 24.5819 29.6755 26.9611 25.9656 26.9611C22.2556 26.9611 20.7395 24.5798 20.7395 20.6762ZM28.2068 20.6762V20.1468C28.2068 17.9632 27.8752 16.5069 25.9553 16.5069C24.0375 16.5069 23.7038 17.9632 23.7038 20.1468V20.6762C23.7038 22.8598 24.0375 24.4439 25.9553 24.4439C27.8731 24.4439 28.2068 22.8577 28.2068 20.6762Z" fill="#8D8D8D"/>
<path d="M33.8821 14.1274H36.593L40.5563 21.3311V14.1274H43.4052V26.8229H40.6944L36.731 19.6172V26.8229H33.8821V14.1274Z" fill="#8D8D8D"/>
<path d="M50.9241 14.1279H51.9808L57.862 23.4554V14.1279H59.3781V26.8234H58.3213L52.4402 17.5639V26.8234H50.9241V14.1279Z" fill="#8D8D8D"/>
<path d="M61.8274 26.6957C63.0778 21.0102 64.734 15.7841 65.5271 14.1279H67.5129C68.306 15.7841 69.9601 21.0102 71.2332 26.6957V26.8317H69.6285C69.3854 25.7564 69.1506 24.7202 68.9137 23.7191H63.9904C63.7555 24.7058 63.5289 25.7358 63.2756 26.8317H61.8171V26.6957H61.8274ZM68.5697 22.3307C67.9043 19.6198 67.2286 17.29 66.4561 15.3907C65.6816 17.29 64.9977 19.6198 64.322 22.3307H68.5697Z" fill="#8D8D8D"/>
<path d="M74.6465 15.4607H71.3403V14.1382H79.473V15.4607H76.1647V26.8337H74.6486V15.4607H74.6465Z" fill="#8D8D8D"/>
<path d="M82.0273 14.1279H83.5455V26.8234H82.0273V14.1279Z" fill="#8D8D8D"/>
<path d="M86.6272 21.01V19.9512C86.6272 16.2515 88.1433 14 91.3239 14C94.5065 14 96.0226 16.1135 96.0226 19.9512V21.01C96.0226 24.7076 94.5065 26.9612 91.3239 26.9612C88.1433 26.9612 86.6272 24.8436 86.6272 21.01ZM94.4962 21.01V19.9512C94.4962 16.7809 93.6352 15.3204 91.3239 15.3204C89.025 15.3204 88.1536 16.7809 88.1536 19.9512V21.01C88.1536 24.1803 89.0353 25.6367 91.3239 25.6367C93.6352 25.6367 94.4962 24.1803 94.4962 21.01Z" fill="#8D8D8D"/>
<path d="M99.0962 14.1279H100.155L106.036 23.4554V14.1279H107.552V26.8234H106.496L100.614 17.5639V26.8234H99.0962V14.1279Z" fill="#8D8D8D"/>
<path d="M109.981 26.6957C111.231 21.0102 112.887 15.7841 113.68 14.1279H115.666C116.459 15.7841 118.113 21.0102 119.387 26.6957V26.8317H117.782C117.539 25.7564 117.304 24.7202 117.067 23.7191H112.144C111.909 24.7058 111.682 25.7358 111.429 26.8317H109.97V26.6957H109.981ZM116.723 22.3307C116.058 19.6198 115.382 17.29 114.61 15.3907C113.835 17.29 113.151 19.6198 112.475 22.3307H116.723Z" fill="#8D8D8D"/>
<path d="M121.782 23.3874V14.1279H123.298V23.5151C123.298 24.8376 123.896 25.433 124.952 25.433H127.859V26.8255H125.08C122.839 26.8317 121.782 25.7564 121.782 23.3874Z" fill="#8D8D8D"/>
<path d="M130.416 23.3874V14.1279H136.7V15.5184H131.942V19.4055H136.307V20.8145H131.942V23.5254C131.942 24.8459 132.667 25.4453 133.724 25.4453H136.894V26.8337H133.849C131.61 26.8317 130.416 25.7564 130.416 23.3874Z" fill="#8D8D8D"/>
<path d="M23.5576 45.7627H24.3527C25.6731 45.7627 26.4641 44.9016 26.4641 43.4535V35.7781H24.0972V34.4556H27.9844V43.4514C27.9844 45.7009 26.5939 47.149 24.3424 47.149H23.5493V45.7606H23.5576V45.7627Z" fill="#8D8D8D"/>
<path d="M31.2803 43.7067V34.4492H37.5652V35.8376H32.8067V39.7248H37.1717V41.1338H32.8067V43.8447C32.8067 45.1672 33.5318 45.7645 34.5886 45.7645H37.7588V47.1529H34.7142C32.4751 47.1488 31.2803 46.0735 31.2803 43.7067Z" fill="#8D8D8D"/>
<path d="M40.5974 42.5798V34.4492H42.1135V42.5798C42.1135 44.8334 43.0426 45.9582 44.7564 45.9582C46.4683 45.9582 47.3973 44.8334 47.3973 42.5798V34.4492H48.9134V42.5798C48.9134 45.4885 47.523 47.2786 44.7461 47.2786C41.8519 47.2786 40.5974 45.4761 40.5974 42.5798Z" fill="#8D8D8D"/>
<path d="M51.7542 41.591V39.8668C51.7542 36.4329 53.7997 34.3091 57.0482 34.3091C58.3892 34.3091 59.5655 34.6407 60.0928 34.8385V36.161H59.9569C59.3512 35.9653 58.2739 35.6316 57.0503 35.6316C54.7411 35.6316 53.2826 36.9541 53.2826 39.8607V41.5828C53.2826 44.4317 54.0077 45.9478 56.6609 45.9478H57.1883C57.7857 45.9478 58.1977 45.851 58.6467 45.7336V42.2502H56.6609V40.9277H60.0372V46.6152C59.5778 46.8789 58.2574 47.2806 57.1883 47.2806H56.6609C52.8809 47.2786 51.7542 44.9014 51.7542 41.591Z" fill="#8D8D8D"/>
<path d="M63.3147 34.4473H66.2213C70.0569 34.4473 71.779 36.2951 71.779 39.7228V41.5912C71.779 44.8315 70.3226 47.1489 66.4849 47.1489H63.3147V34.4473V34.4473ZM66.4932 45.8203C69.2824 45.8203 70.2608 44.3618 70.2608 41.5912V39.7228C70.2608 36.9625 68.9404 35.7677 66.2295 35.7677H64.839V45.8203H66.4932Z" fill="#8D8D8D"/>
<path d="M74.218 41.3274V40.2686C74.218 36.5689 75.7341 34.3174 78.9147 34.3174C82.0953 34.3174 83.6134 36.4309 83.6134 40.2686V41.3274C83.6134 45.025 82.0953 47.2786 78.9147 47.2786C75.7341 47.2786 74.218 45.1651 74.218 41.3274ZM82.087 41.3274V40.2686C82.087 37.0983 81.2239 35.6399 78.9147 35.6399C76.6158 35.6399 75.7444 37.0983 75.7444 40.2686V41.3274C75.7444 44.4977 76.6261 45.9561 78.9147 45.9561C81.2239 45.9561 82.087 44.4977 82.087 41.3274Z" fill="#8D8D8D"/>
<path d="M86.7056 34.4469H89.8182C92.4611 34.4469 93.9195 35.5716 93.9195 38.2125C93.9195 40.2003 92.8607 41.1891 91.5403 41.7844C93.1285 43.1749 94.2718 45.9641 94.587 47.0105V47.1465H93.0688C92.8051 46.0712 91.3466 43.3108 90.1622 42.3221H88.2443V47.1465H86.7282V34.4448H86.7056V34.4469ZM89.5442 40.9934C91.532 40.9934 92.3931 39.7986 92.3931 38.2125C92.3931 36.3647 91.532 35.7652 89.8182 35.7652H88.232V40.9913H89.5442V40.9934Z" fill="#8D8D8D"/>
<path d="M97.3347 34.4473H98.8508V39.867H99.6439L103.743 34.4473H105.331V34.5832L100.898 40.4644L105.459 47.0109V47.1469H103.805L99.5759 41.1957H98.8508V47.1469H97.3347V34.4473Z" fill="#8D8D8D"/>
<path d="M107.709 43.7067V34.4492H113.992V35.8376H109.235V39.7248H113.6V41.1338H109.235V43.8447C109.235 45.1672 109.96 45.7645 111.015 45.7645H114.187V47.1529H111.143C108.893 47.1488 107.709 46.0735 107.709 43.7067Z" fill="#8D8D8D"/>
<path d="M116.352 46.7492V45.4267H116.48C117.125 45.6244 118.163 45.9561 119.123 45.9561H119.523C121.109 45.9561 122.098 45.231 122.098 43.6448C122.098 42.2564 121.255 41.727 120.11 41.3954L119.181 41.1296C118.025 40.798 116.595 39.9369 116.595 37.7534C116.595 35.9715 117.848 34.3174 120.297 34.3174H120.629C121.558 34.3174 122.742 34.5831 123.272 34.8468V36.0992H123.134C122.528 35.9015 121.48 35.6378 120.618 35.6378H120.219C118.76 35.6378 118.105 36.4309 118.105 37.7513C118.105 39.0717 118.701 39.5023 119.691 39.7948L120.553 40.0605C121.894 40.4704 123.597 41.1873 123.597 43.6325C123.597 45.816 122.139 47.2745 119.498 47.2745H119.096C118.074 47.2786 116.88 46.9449 116.352 46.7492Z" fill="#8D8D8D"/>
<path d="M128.84 35.7677H125.531V34.4473H133.664V35.7677H130.358V47.1407H128.842V35.7677H128.84Z" fill="#8D8D8D"/>
<path d="M136.101 43.7067V34.4492H142.384V35.8376H137.627V39.7248H141.993V41.1338H137.627V43.8447C137.627 45.1672 138.353 45.7645 139.407 45.7645H142.58V47.1529H139.535C137.296 47.1488 136.101 46.0735 136.101 43.7067Z" fill="#8D8D8D"/>
<path d="M145.546 34.4473H146.603L152.484 43.7727V34.4473H154V47.1407H152.943L147.062 37.8812V47.1407H145.546V34.4473Z" fill="#8D8D8D"/>
<path d="M8.33862 54.7666H9.39538L15.2765 64.092V54.7666H16.7947V67.46H15.7359L9.85473 58.2026V67.46H8.33862V54.7666Z" fill="#8D8D8D"/>
<path d="M20.4265 64.024V54.7666H26.7094V56.155H21.9529V60.0421H26.3159V61.4512H21.9529V64.1621C21.9529 65.4845 22.678 66.0819 23.7327 66.0819H26.903V67.4703H23.8584C21.6192 67.46 20.4265 66.3806 20.4265 64.024Z" fill="#8D8D8D"/>
<path d="M29.8713 54.7666H32.7779C36.6136 54.7666 38.3357 56.6144 38.3357 60.0421V61.9105C38.3357 65.1508 36.8772 67.4683 33.0416 67.4683H29.8713V54.7666V54.7666ZM33.0416 66.1375C35.8308 66.1375 36.8092 64.6791 36.8092 61.9085V60.0401C36.8092 57.2798 35.4868 56.085 32.7779 56.085H31.3874V66.1375H33.0416Z" fill="#8D8D8D"/>
<path d="M41.2917 64.024V54.7666H47.5767V56.155H42.8182V60.0421H47.1832V61.4512H42.8182V64.1621C42.8182 65.4845 43.5433 66.0819 44.6 66.0819H47.7703V67.4703H44.7257C42.4865 67.46 41.2917 66.3806 41.2917 64.024Z" fill="#8D8D8D"/>
<path d="M50.7366 54.7667H53.8492C56.4921 54.7667 57.9505 55.8914 57.9505 58.5323C57.9505 60.5201 56.8917 61.5089 55.5733 62.1043C57.1595 63.4968 58.3028 66.2839 58.618 67.3303V67.4663H57.1018C56.8361 66.3931 55.3776 63.6328 54.1952 62.6419H52.2753V67.4663H50.7592V54.7646H50.7366V54.7667ZM53.5855 61.3112C55.5733 61.3112 56.4344 60.1185 56.4344 58.5302C56.4344 56.6825 55.5733 56.083 53.8594 56.083H52.2733V61.3091H53.5855V61.3112Z" fill="#8D8D8D"/>
<path d="M61.3762 64.024V54.7666H62.8924V64.1538C62.8924 65.4742 63.4897 66.0716 64.5465 66.0716H67.4531V67.4621H64.6722C62.433 67.46 61.3762 66.3806 61.3762 64.024Z" fill="#8D8D8D"/>
<path d="M68.8333 67.3303C70.0858 61.6449 71.7399 56.4188 72.533 54.7646H74.5208C75.3139 56.4188 76.968 61.6449 78.2411 67.3303V67.4663H76.6364C76.3913 66.3931 76.1564 65.3548 75.9195 64.3558H70.9962C70.7635 65.3425 70.5369 66.3725 70.2814 67.4663H68.823V67.3303H68.8333ZM75.5776 62.9653C74.9122 60.2565 74.2386 57.9267 73.4641 56.0274C72.6916 57.9267 72.0056 60.2565 71.332 62.9653H75.5776Z" fill="#8D8D8D"/>
<path d="M80.6553 54.7666H81.7141L87.5952 64.092V54.7666H89.1114V67.46H88.0525L82.1714 58.2026V67.46H80.6553V54.7666Z" fill="#8D8D8D"/>
<path d="M92.8811 54.7666H95.7877C99.6233 54.7666 101.345 56.6144 101.345 60.0421V61.9105C101.345 65.1508 99.887 67.4683 96.0514 67.4683H92.8811V54.7666V54.7666ZM96.0514 66.1375C98.8405 66.1375 99.819 64.6791 99.819 61.9085V60.0401C99.819 57.2798 98.4986 56.085 95.7877 56.085H94.3972V66.1375H96.0514Z" fill="#8D8D8D"/>
<path d="M154 64.8237C154 50.8101 159.567 37.3842 169.47 27.4701C179.37 17.57 192.807 12 206.821 12C220.832 12 234.26 17.57 244.172 27.4701C254.083 37.3701 259.642 50.8101 259.642 64.8237L259.6 67H258.545H255.686H255.138H250.394H247.284H245.814L245.856 65.1949C245.856 54.8421 241.74 44.9168 234.421 37.5951C227.102 30.2734 217.174 26.1598 206.824 26.1598C196.468 26.1598 186.543 30.2734 179.224 37.5951C172.332 44.4894 168.281 53.6922 167.842 63.3926H172.355C172.796 54.8956 176.378 46.84 182.415 40.7892C188.896 34.3222 197.672 30.6754 206.824 30.6754C215.973 30.6754 224.751 34.3082 231.232 40.7892C237.696 47.2533 241.346 56.0455 241.346 65.1949L241.29 67H237.696H236.934H231.671H230.029H226.942C226.995 66.4377 227.006 65.8781 227.006 65.3158C227.006 59.9595 224.883 54.8168 221.09 51.021C217.295 47.228 212.166 45.1051 206.796 45.1051C201.439 45.1051 196.297 47.228 192.501 51.021C189.161 54.3613 187.116 58.742 186.678 63.3926H191.955C192.357 60.0916 193.853 57.0072 196.232 54.6285C199.035 51.8224 202.831 50.2478 206.798 50.2478C210.766 50.2478 214.562 51.8252 217.365 54.6285C220.171 57.4345 221.748 61.2275 221.748 65.1949C221.748 65.7966 221.709 66.3983 221.641 67H216.862C216.954 66.4236 217.008 65.85 217.008 65.2624C217.008 62.5519 215.925 59.9454 214.016 58.0363C212.093 56.1102 209.503 55.0446 206.79 55.0446C204.077 55.0446 201.473 56.1271 199.564 58.0363C197.652 59.9454 196.572 62.5519 196.572 65.2624C196.572 65.85 196.628 66.4236 196.721 67H193.153H191.989H186.686H185.497H181.957C181.915 66.3983 181.889 65.7966 181.889 65.1949C181.889 58.5817 184.524 52.2385 189.2 47.5738C193.873 42.898 200.219 40.2662 206.821 40.2662C213.42 40.2662 219.777 42.898 224.442 47.5738C228.69 51.8224 231.244 57.4458 231.682 63.3898H236.946C236.504 56.0427 233.392 49.095 228.156 43.8596C222.491 38.194 214.823 35.0139 206.821 35.0139C198.819 35.0139 191.137 38.194 185.486 43.8596C179.82 49.5224 176.64 57.1928 176.64 65.1921C176.64 65.7938 176.654 66.3955 176.696 66.9972H174.132H172.341H167.825H166.478H163.245L163.206 65.1921C163.206 53.6247 167.8 42.5353 175.976 34.3588C184.153 26.1823 195.242 21.5879 206.81 21.5879C218.377 21.5879 229.467 26.1823 237.643 34.3588C245.392 42.1079 249.919 52.4747 250.374 63.3757H255.129C254.716 51.1391 249.68 39.4902 240.995 30.8076C231.924 21.737 219.634 16.6478 206.81 16.6478C193.985 16.6478 181.693 21.737 172.625 30.8076C163.551 39.8782 158.465 52.1682 158.465 64.9925L158.504 66.9831H154.028L154 64.8237Z" fill="url(#paint0_linear)"/>
<defs>
<linearGradient id="paint0_linear" x1="153.047" y1="68.0319" x2="259.892" y2="68.0319" gradientUnits="userSpaceOnUse">
<stop stop-color="#F08100"/>
<stop offset="1" stop-color="#CC203E"/>
</linearGradient>
</defs>
</svg>
